<?xml version="1.0" encoding="UTF-8" standalone="no"?>
<!DOCTYPE svg PUBLIC "-//W3C//DTD SVG 1.1//EN" "http://www.w3.org/Graphics/SVG/1.1/DTD/svg11.dtd">
<svg width="100%" height="100%" viewBox="0 0 620 768" version="1.1" xmlns="http://www.w3.org/2000/svg" xmlns:xlink="http://www.w3.org/1999/xlink" xml:space="preserve" xmlns:serif="http://www.serif.com/" style="fill-rule:evenodd;clip-rule:evenodd;stroke-linecap:round;stroke-linejoin:round;stroke-miterlimit:1.5;">
    <g id="Artboard1" transform="matrix(1,0,0,1,-200,0)">
        <rect x="200" y="0" width="620" height="768" style="fill:none;"/>
        <g transform="matrix(1.87531,0,0,1.87531,-463.162,-217.037)">
            <path d="M360,140.967C360,129.929 368.929,120.972 379.967,120.938C437.361,120.758 602.358,120.243 659.908,120.063C665.231,120.046 670.342,122.149 674.111,125.907C677.881,129.665 680,134.769 680,140.092L680,179.971C680,185.283 677.89,190.377 674.134,194.134C670.377,197.89 665.283,200 659.971,200C637.783,200 602.217,200 580.029,200C574.717,200 569.623,202.11 565.866,205.866C562.11,209.623 560,214.717 560,220.029C560,236.705 560,260.333 560,277.008C560,282.32 557.89,287.415 554.134,291.171C550.377,294.927 545.283,297.037 539.971,297.037L500.029,297.037C494.717,297.037 489.623,294.927 485.866,291.171C482.11,287.415 480,282.32 480,277.008C480,260.388 480,236.863 480,220.197C480,214.856 477.867,209.736 474.074,205.975C470.282,202.214 465.145,200.124 459.804,200.168C437.66,200.353 402.34,200.647 380.196,200.832C374.855,200.876 369.718,198.786 365.926,195.025C362.133,191.264 360,186.144 360,180.803C360,168.606 360,153.123 360,140.967Z" style="fill:black;stroke:black;stroke-width:0.53px;"/>
        </g>
        <g transform="matrix(1.87531,0,0,1.87531,-463.162,-215.162)">
            <path d="M480,420.029C480,414.717 482.11,409.623 485.866,405.866C489.623,402.11 494.717,400 500.029,400C512.231,400 527.769,400 539.971,400C545.283,400 550.377,402.11 554.134,405.866C557.89,409.623 560,414.717 560,420.029C560,442.217 560,477.783 560,499.971C560,505.283 557.89,510.377 554.134,514.134C550.377,517.89 545.283,520 539.971,520C527.769,520 512.231,520 500.029,520C494.717,520 489.623,517.89 485.866,514.134C482.11,510.377 480,505.283 480,499.971C480,477.783 480,442.217 480,420.029Z" style="fill:black;stroke:black;stroke-width:0.53px;"/>
        </g>
    </g>
</svg>
